<svg width="24" height="24" viewBox="0 0 24 24" fill="none" xmlns="http://www.w3.org/2000/svg">
<mask id="mask0_116581_3354" style="mask-type:alpha" maskUnits="userSpaceOnUse" x="0" y="0" width="24" height="24">
<rect width="24" height="24" fill="#D9D9D9"/>
</mask>
<g mask="url(#mask0_116581_3354)">
<path d="M17.525 19.852L19.7673 18.4443C19.9147 18.3506 19.9885 18.2217 19.9885 18.0577C19.9885 17.8936 19.9147 17.7647 19.7673 17.6712L17.525 16.2635C17.3712 16.1698 17.2163 16.1657 17.0605 16.251C16.9048 16.3362 16.827 16.4692 16.827 16.65V19.4653C16.827 19.6461 16.9048 19.7792 17.0605 19.8645C17.2163 19.9497 17.3712 19.9455 17.525 19.852ZM7.13475 8.86525H16.8652C17.0781 8.86525 17.2563 8.7935 17.4 8.65C17.5435 8.50633 17.6152 8.32817 17.6152 8.1155C17.6152 7.90267 17.481 7.72442 17.2125 7.58075C16.9438 7.43725 16.7223 7.3655 16.548 7.3655H7.13475C6.92192 7.3655 6.74367 7.43725 6.6 7.58075C6.4565 7.72442 6.38475 7.90267 6.38475 8.1155C6.38475 8.32817 6.4565 8.50633 6.6 8.65C6.74367 8.7935 6.92192 8.86525 7.13475 8.86525ZM18 22.5578C16.7513 22.5578 15.6892 22.1199 14.8135 21.2443C13.9378 20.3686 13.5 19.3064 13.5 18.0577C13.5 16.8091 13.9378 15.7469 14.8135 14.8713C15.6892 13.9956 16.7513 13.5577 18 13.5577C19.2487 13.5577 20.3108 13.9956 21.1865 14.8713C22.0622 15.7469 22.5 16.8091 22.5 18.0577C22.5 19.3064 22.0622 20.3686 21.1865 21.2443C20.3108 22.1199 19.2487 22.5578 18 22.5578ZM3.5 21.298V5.30775C3.5 4.80908 3.67658 4.38308 4.02975 4.02975C4.38308 3.67658 4.80908 3.5 5.30775 3.5H18.6923C19.1909 3.5 19.6169 3.67658 19.9703 4.02975C20.3234 4.38308 20.5 4.80908 20.5 5.30775V11.6173C20.2602 11.5121 20.0169 11.424 19.7703 11.353C19.5234 11.2818 19.2667 11.2277 19 11.1905V5.30775C19 5.23075 18.9679 5.16025 18.9038 5.09625C18.8398 5.03208 18.7692 5 18.6923 5H5.30775C5.23075 5 5.16025 5.03208 5.09625 5.09625C5.03208 5.16025 5 5.23075 5 5.30775V19.05H11.2098C11.2738 19.4448 11.3676 19.8243 11.4913 20.1885C11.6151 20.5525 11.7802 20.898 11.9865 21.225C11.9352 21.2352 11.8813 21.2275 11.825 21.202C11.7687 21.1763 11.7199 21.143 11.6788 21.102L10.577 20.1538L9.44625 21.121C9.35908 21.1955 9.26158 21.2327 9.15375 21.2327C9.04608 21.2327 8.94867 21.1955 8.8615 21.121L7.73075 20.1538L6.6 21.121C6.51283 21.1955 6.41542 21.2327 6.30775 21.2327C6.20008 21.2327 6.10267 21.1955 6.0155 21.121L4.875 20.1538L3.802 21.121C3.78267 21.1338 3.682 21.1928 3.5 21.298ZM7.13475 16.6345H11.277C11.3205 16.3678 11.3811 16.1112 11.4588 15.8645C11.5363 15.6177 11.6308 15.3744 11.7423 15.1348H7.13475C6.92192 15.1348 6.74367 15.2065 6.6 15.35C6.4565 15.4937 6.38475 15.6718 6.38475 15.8845C6.38475 16.0973 6.4565 16.2756 6.6 16.4193C6.74367 16.5628 6.92192 16.6345 7.13475 16.6345ZM7.13475 12.75H13.5905C14.07 12.3128 14.6136 11.9616 15.2212 11.6962C15.8289 11.4307 16.4763 11.282 17.1635 11.25H7.13475C6.92192 11.25 6.74367 11.3218 6.6 11.4655C6.4565 11.609 6.38475 11.7872 6.38475 12C6.38475 12.2128 6.4565 12.391 6.6 12.5345C6.74367 12.6782 6.92192 12.75 7.13475 12.75Z" fill="#51525D"/>
</g>
</svg>
