<svg width="18" height="18" viewBox="0 0 18 18" fill="none" xmlns="http://www.w3.org/2000/svg">
<path d="M6.57508 6.49984C6.771 5.94289 7.15771 5.47326 7.66671 5.17411C8.17571 4.87497 8.77416 4.76562 9.35606 4.86543C9.93796 4.96524 10.4658 5.26777 10.846 5.71944C11.2262 6.17111 11.4343 6.74277 11.4334 7.33317C11.4334 8.99984 8.93342 9.83317 8.93342 9.83317M9.00008 13.1665H9.00842M17.3334 8.99984C17.3334 13.6022 13.6025 17.3332 9.00008 17.3332C4.39771 17.3332 0.666748 13.6022 0.666748 8.99984C0.666748 4.39746 4.39771 0.666504 9.00008 0.666504C13.6025 0.666504 17.3334 4.39746 17.3334 8.99984Z" stroke="#51525D" stroke-linecap="round" stroke-linejoin="round"/>
</svg>
