<svg width="20" height="20" viewBox="0 0 20 20" fill="none" xmlns="http://www.w3.org/2000/svg">
<g clip-path="url(#clip0_3247_124453)">
<path d="M9.9987 5.00065C13.157 5.00065 15.9737 6.77565 17.3487 9.58398C15.9737 12.3923 13.157 14.1673 9.9987 14.1673C6.84036 14.1673 4.0237 12.3923 2.6487 9.58398C4.0237 6.77565 6.84036 5.00065 9.9987 5.00065ZM9.9987 3.33398C5.83203 3.33398 2.2737 5.92565 0.832031 9.58398C2.2737 13.2423 5.83203 15.834 9.9987 15.834C14.1654 15.834 17.7237 13.2423 19.1654 9.58398C17.7237 5.92565 14.1654 3.33398 9.9987 3.33398ZM9.9987 7.50065C11.1487 7.50065 12.082 8.43398 12.082 9.58398C12.082 10.734 11.1487 11.6673 9.9987 11.6673C8.8487 11.6673 7.91536 10.734 7.91536 9.58398C7.91536 8.43398 8.8487 7.50065 9.9987 7.50065ZM9.9987 5.83398C7.93203 5.83398 6.2487 7.51732 6.2487 9.58398C6.2487 11.6507 7.93203 13.334 9.9987 13.334C12.0654 13.334 13.7487 11.6507 13.7487 9.58398C13.7487 7.51732 12.0654 5.83398 9.9987 5.83398Z" fill="#A4A7AE"/>
</g>
<defs>
<clipPath id="clip0_3247_124453">
<rect width="20" height="20" fill="white"/>
</clipPath>
</defs>
</svg>
