<svg width="96" height="96" viewBox="0 0 96 96" fill="none" xmlns="http://www.w3.org/2000/svg">
<g clip-path="url(#clip0_3003_9293)">
<path d="M48 23.9998C63.16 23.9998 76.68 32.5198 83.28 45.9998C80.92 50.8798 77.6 55.0798 73.64 58.4798L79.28 64.1198C84.84 59.1998 89.24 53.0398 92 45.9998C85.08 28.4398 68 15.9998 48 15.9998C42.92 15.9998 38.04 16.7998 33.44 18.2798L40.04 24.8798C42.64 24.3598 45.28 23.9998 48 23.9998ZM43.72 28.5598L52 36.8398C54.28 37.8398 56.12 39.6798 57.12 41.9598L65.4 50.2398C65.72 48.8798 65.96 47.4398 65.96 45.9598C66 36.0398 57.92 27.9998 48 27.9998C46.52 27.9998 45.12 28.1998 43.72 28.5598ZM8.04 15.4798L18.76 26.1998C12.24 31.3198 7.08 38.1198 4 45.9998C10.92 63.5598 28 75.9998 48 75.9998C54.08 75.9998 59.92 74.8398 65.28 72.7198L78.96 86.3998L84.6 80.7598L13.68 9.7998L8.04 15.4798ZM38.04 45.4798L48.48 55.9198C48.32 55.9598 48.16 55.9998 48 55.9998C42.48 55.9998 38 51.5198 38 45.9998C38 45.7998 38.04 45.6798 38.04 45.4798ZM24.44 31.8798L31.44 38.8798C30.52 41.0798 30 43.4798 30 45.9998C30 55.9198 38.08 63.9998 48 63.9998C50.52 63.9998 52.92 63.4798 55.08 62.5598L59 66.4798C55.48 67.4398 51.8 67.9998 48 67.9998C32.84 67.9998 19.32 59.4798 12.72 45.9998C15.52 40.2798 19.6 35.5598 24.44 31.8798Z" fill="#717680"/>
</g>
<defs>
<clipPath id="clip0_3003_9293">
<rect width="96" height="96" fill="white"/>
</clipPath>
</defs>
</svg>
