<svg width="16" height="16" viewBox="0 0 16 16" fill="none" xmlns="http://www.w3.org/2000/svg">
<g clip-path="url(#clip0_4824_8902)">
<path d="M3.33203 9.99992H2.66536C2.31174 9.99992 1.9726 9.85944 1.72256 9.60939C1.47251 9.35935 1.33203 9.02021 1.33203 8.66659V2.66659C1.33203 2.31296 1.47251 1.97382 1.72256 1.72378C1.9726 1.47373 2.31174 1.33325 2.66536 1.33325H8.66536C9.01899 1.33325 9.35813 1.47373 9.60817 1.72378C9.85822 1.97382 9.9987 2.31296 9.9987 2.66659V3.33325M7.33203 5.99992H13.332C14.0684 5.99992 14.6654 6.59687 14.6654 7.33325V13.3333C14.6654 14.0696 14.0684 14.6666 13.332 14.6666H7.33203C6.59565 14.6666 5.9987 14.0696 5.9987 13.3333V7.33325C5.9987 6.59687 6.59565 5.99992 7.33203 5.99992Z" stroke="#A4A7AE" stroke-width="1.5" stroke-linecap="round" stroke-linejoin="round"/>
</g>
<defs>
<clipPath id="clip0_4824_8902">
<rect width="16" height="16" fill="white"/>
</clipPath>
</defs>
</svg>
