<svg width="21" height="20" viewBox="0 0 21 20" fill="none" xmlns="http://www.w3.org/2000/svg">
<path d="M14.668 2.50005C14.8868 2.28118 15.1467 2.10756 15.4326 1.98911C15.7186 1.87066 16.0251 1.80969 16.3346 1.80969C16.6442 1.80969 16.9507 1.87066 17.2366 1.98911C17.5226 2.10756 17.7824 2.28118 18.0013 2.50005C18.2202 2.71892 18.3938 2.97875 18.5122 3.26472C18.6307 3.55069 18.6917 3.85719 18.6917 4.16671C18.6917 4.47624 18.6307 4.78274 18.5122 5.06871C18.3938 5.35468 18.2202 5.61451 18.0013 5.83338L6.7513 17.0834L2.16797 18.3334L3.41797 13.75L14.668 2.50005Z" stroke="#535862" stroke-width="1.66667" stroke-linecap="round" stroke-linejoin="round"/>
</svg>
