<svg width="21" height="20" viewBox="0 0 21 20" fill="none" xmlns="http://www.w3.org/2000/svg">
<mask id="mask0_4881_5880" style="mask-type:alpha" maskUnits="userSpaceOnUse" x="0" y="0" width="21" height="20">
<rect x="0.5" width="20" height="20" fill="#D9D9D9"/>
</mask>
<g mask="url(#mask0_4881_5880)">
<path d="M4.66667 17.5C4.20833 17.5 3.81597 17.3368 3.48958 17.0104C3.16319 16.684 3 16.2917 3 15.8333V12.5H4.66667V15.8333H16.3333V4.16667H4.66667V7.5H3V4.16667C3 3.70833 3.16319 3.31597 3.48958 2.98958C3.81597 2.66319 4.20833 2.5 4.66667 2.5H16.3333C16.7917 2.5 17.184 2.66319 17.5104 2.98958C17.8368 3.31597 18 3.70833 18 4.16667V15.8333C18 16.2917 17.8368 16.684 17.5104 17.0104C17.184 17.3368 16.7917 17.5 16.3333 17.5H4.66667ZM9.25 14.1667L8.08333 12.9583L10.2083 10.8333H3V9.16667H10.2083L8.08333 7.04167L9.25 5.83333L13.4167 10L9.25 14.1667Z" fill="#535862"/>
</g>
</svg>
